<svg xmlns="http://www.w3.org/2000/svg" viewBox="0 0 500 760" width="500" height="760"><defs>
  <linearGradient id="skinGrad" x1="0" y1="0" x2="0" y2="1">
    <stop offset="0" stop-color="#969696"/><stop offset="1" stop-color="#767676"/>
  </linearGradient>
  <linearGradient id="hairGrad" x1="0" y1="0" x2="0" y2="1">
    <stop offset="0" stop-color="#5c5c5c"/><stop offset="1" stop-color="#3c3c3c"/>
  </linearGradient>
  <linearGradient id="wallGrad" x1="0" y1="0" x2="0" y2="1">
    <stop offset="0" stop-color="#a6abb5"/><stop offset="1" stop-color="#898e99"/>
  </linearGradient>
  <linearGradient id="floorGrad" x1="0" y1="0" x2="0" y2="1">
    <stop offset="0" stop-color="#5f5f5f"/><stop offset="1" stop-color="#424242"/>
  </linearGradient>
  <linearGradient id="glassGrad" x1="0" y1="0" x2="1" y2="1">
    <stop offset="0" stop-color="#ddeaf7"/><stop offset="1" stop-color="#a9c6e0"/>
  </linearGradient>
  <linearGradient id="woodGrad" x1="0" y1="0" x2="0" y2="1">
    <stop offset="0" stop-color="#b98d60"/><stop offset="1" stop-color="#8a6238"/>
  </linearGradient>
  <linearGradient id="steelGrad" x1="0" y1="0" x2="0" y2="1">
    <stop offset="0" stop-color="#8b93a3"/><stop offset="1" stop-color="#5d6672"/>
  </linearGradient>
</defs><g stroke="#1e2430" stroke-width="4" stroke-linejoin="round" stroke-linecap="round">
  <path d="M178 152 Q182 84 250 80 Q318 84 322 152 Q300 114 250 112 Q200 114 178 152 Z" fill="url(#hairGrad)"/>
  <path d="M322 140 Q372 150 368 230 Q366 270 350 280 Q352 230 330 180 Q316 152 322 140 Z" fill="url(#hairGrad)"/>
  <circle cx="372" cy="238" r="10" fill="#e05656" stroke="none"/>
  <circle cx="372" cy="238" r="4" fill="#ffffff" stroke="none"/></g></svg>