<svg xmlns="http://www.w3.org/2000/svg" viewBox="0 0 1000 1000" width="1000" height="1000"><defs>
  <linearGradient id="skinGrad" x1="0" y1="0" x2="0" y2="1">
    <stop offset="0" stop-color="#969696"/><stop offset="1" stop-color="#767676"/>
  </linearGradient>
  <linearGradient id="hairGrad" x1="0" y1="0" x2="0" y2="1">
    <stop offset="0" stop-color="#5c5c5c"/><stop offset="1" stop-color="#3c3c3c"/>
  </linearGradient>
  <linearGradient id="wallGrad" x1="0" y1="0" x2="0" y2="1">
    <stop offset="0" stop-color="#a6abb5"/><stop offset="1" stop-color="#898e99"/>
  </linearGradient>
  <linearGradient id="floorGrad" x1="0" y1="0" x2="0" y2="1">
    <stop offset="0" stop-color="#5f5f5f"/><stop offset="1" stop-color="#424242"/>
  </linearGradient>
  <linearGradient id="glassGrad" x1="0" y1="0" x2="1" y2="1">
    <stop offset="0" stop-color="#ddeaf7"/><stop offset="1" stop-color="#a9c6e0"/>
  </linearGradient>
  <linearGradient id="woodGrad" x1="0" y1="0" x2="0" y2="1">
    <stop offset="0" stop-color="#b98d60"/><stop offset="1" stop-color="#8a6238"/>
  </linearGradient>
  <linearGradient id="steelGrad" x1="0" y1="0" x2="0" y2="1">
    <stop offset="0" stop-color="#8b93a3"/><stop offset="1" stop-color="#5d6672"/>
  </linearGradient>
</defs><ellipse cx="500" cy="668" rx="260" ry="14" fill="#000000" opacity="0.12" stroke="none"/><g stroke="#1e2430" stroke-width="4" stroke-linejoin="round" stroke-linecap="round">
  <rect x="420" y="510" width="160" height="110" rx="8" fill="#20242a"/>
  <rect x="430" y="520" width="140" height="90" rx="4" fill="#1e293b"/>
  <rect x="600" y="510" width="160" height="110" rx="8" fill="#20242a"/>
  <rect x="610" y="520" width="140" height="90" rx="4" fill="#312e81"/>
  <rect x="492" y="620" width="18" height="36" fill="#2f3542"/>
  <rect x="672" y="620" width="18" height="36" fill="#2f3542"/></g></svg>